# This file uses centimeters as units for non-parametric coordinates.

g default
v -0.484817 -0.484816 0.448251
v -0.448161 -0.500000 0.448161
v -0.448093 -0.484817 0.484817
v -0.448161 -0.448161 0.500000
v -0.484817 -0.448251 0.484816
v -0.500000 -0.448161 0.448161
v 0.484817 -0.484816 0.448251
v 0.500000 -0.448161 0.448161
v 0.484817 -0.448251 0.484816
v 0.448161 -0.448161 0.500000
v 0.448059 -0.484816 0.484817
v 0.448161 -0.500000 0.448161
v -0.485659 0.413238 0.438267
v -0.500000 0.358593 0.441427
v -0.485682 0.394997 0.482221
v -0.450886 0.409250 0.500000
v -0.450926 0.443978 0.476795
v -0.450886 0.435830 0.435830
v 0.485659 0.413238 0.438267
v 0.450886 0.435830 0.435830
v 0.452310 0.445740 0.476769
v 0.453612 0.414286 0.500000
v 0.486409 0.398265 0.482633
v 0.500000 0.358593 0.441427
v -0.485671 -0.482227 -0.395072
v -0.500000 -0.441427 -0.358593
v -0.485670 -0.438219 -0.413180
v -0.450886 -0.435830 -0.435830
v -0.450926 -0.476795 -0.443978
v -0.450886 -0.500000 -0.409250
v 0.485671 -0.482227 -0.395072
v 0.450886 -0.500000 -0.409250
v 0.452325 -0.478058 -0.445202
v 0.453612 -0.439391 -0.439391
v 0.486404 -0.440241 -0.415782
v 0.500000 -0.441427 -0.358593
v -0.478052 -0.478118 0.478118
v 0.478040 -0.478118 0.478114
v -0.479369 0.429060 0.470575
v 0.479909 0.430591 0.470786
v -0.479369 -0.470559 -0.429067
v 0.479919 -0.471495 -0.430294
vt 0.387960 0.987040
vt 0.387960 0.012960
vt 0.612040 0.987040
vt 0.637960 0.012960
vt 0.160352 0.014643
vt 0.387278 0.227312
vt 0.613403 0.228572
vt 0.639643 0.214648
vt 0.839648 0.014643
vt 0.612722 0.772687
vt 0.387278 0.717915
vt 0.613403 0.719696
vt 0.612040 0.012960
vt 0.612722 0.282085
vt 0.387278 0.282085
vt 0.387278 0.772687
vt 0.362040 0.012960
vt 0.360357 0.214648
vt 0.375000 0.991399
vt 0.366399 -0.000000
vt 0.383191 -0.000000
vt 0.383191 1.000000
vt 0.374996 0.012692
vt 0.633593 -0.000000
vt 0.625000 0.991407
vt 0.624998 0.012733
vt 0.616803 1.000000
vt 0.616803 -0.000000
vt 0.367852 0.242852
vt 0.375000 0.264297
vt 0.374706 0.224868
vt 0.387177 0.254485
vt 0.625000 0.264575
vt 0.632287 0.242713
vt 0.613175 0.254116
vt 0.625280 0.225657
vt 0.135012 -0.000000
vt 0.375000 0.760012
vt 0.375000 0.735681
vt 0.132160 0.007160
vt 0.387177 0.745513
vt 0.625000 0.760217
vt 0.864783 -0.000000
vt 0.613179 0.745385
vt 0.868150 0.006850
vt 0.625000 0.736301
vt 0.375000 1.000000
vt 0.375000 0.000000
vt 0.625000 0.000000
vt 0.625000 1.000000
vt 0.375000 0.250000
vt 0.625000 0.250000
vt 0.125000 0.000000
vt 0.375000 0.750000
vt 0.625000 0.750000
vt 0.875000 0.000000
vn -0.017182 -0.999714 0.016658
vn -0.416604 -0.909030 0.010290
vn -0.421830 -0.906601 -0.011599
vn -0.014111 -0.999577 -0.025419
vn -0.934801 -0.355056 0.009091
vn -0.998949 -0.032411 0.032397
vn -0.998075 -0.001996 -0.061988
vn -0.943934 -0.328906 -0.028450
vn -0.017114 -0.016590 0.999716
vn -0.010093 -0.381536 0.924299
vn 0.010085 -0.381544 0.924296
vn 0.016939 -0.016609 0.999719
vn -0.010093 -0.924299 0.381537
vn 0.017182 -0.999714 0.016651
vn 0.010082 -0.924296 0.381544
vn -0.934832 -0.009098 0.354973
vn -0.943945 0.028413 0.328879
vn -0.998074 0.062011 0.001924
vn -0.416623 -0.010288 0.909021
vn -0.014079 0.025958 0.999564
vn -0.421846 0.011567 0.906594
vn 0.998971 -0.032441 0.031683
vn 0.934799 -0.355061 0.009098
vn 0.943237 -0.331090 -0.026156
vn 0.998132 -0.002392 -0.061047
vn 0.416602 -0.909031 0.010297
vn 0.014013 -0.999568 -0.025849
vn 0.421625 -0.906709 -0.010568
vn 0.421689 -0.011565 0.906667
vn 0.427540 0.009783 0.903944
vn 0.013945 0.000750 0.999902
vn 0.938135 -0.009603 0.346136
vn 0.998185 0.060148 0.003035
vn 0.948376 0.029410 0.315782
vn -0.949181 0.235571 -0.208713
vn -0.949170 0.208762 -0.235574
vn -0.455023 0.635178 -0.624101
vn -0.014791 0.719477 -0.694359
vn -0.014786 0.694042 -0.719783
vn -0.455022 0.624117 -0.635164
vn -0.015017 0.976142 -0.216616
vn 0.013677 0.975844 -0.218042
vn 0.014575 0.719699 -0.694133
vn -0.016732 0.572152 0.819977
vn -0.002148 0.574327 0.818624
vn -0.002148 0.574327 0.818624
vn 0.461049 0.633134 -0.621752
vn 0.461650 0.622619 -0.631843
vn 0.014472 0.706673 -0.707393
vn 0.951421 0.229858 -0.204852
vn 0.952977 0.199884 -0.227773
vn -0.015077 -0.843376 -0.537112
vn 0.013748 -0.844179 -0.535886
vn -0.016667 0.175206 -0.984391
vn -0.002146 0.172700 -0.984972
vn -0.002146 0.172700 -0.984972
vn -0.887922 -0.325266 0.325265
vn -0.324084 -0.888276 0.325477
vn -0.324084 -0.325476 0.888276
vn 0.323993 -0.888232 0.325689
vn 0.887806 -0.325423 0.325423
vn 0.324029 -0.325719 0.888208
vn -0.485724 0.842185 -0.234088
vn -0.965296 0.241392 0.099668
vn -0.486831 0.429679 0.760508
vn 0.967736 0.243240 0.065737
vn 0.485500 0.828548 -0.278923
vn 0.516668 0.460258 0.721954
vn 0.516668 0.460258 0.721954
vn -0.486640 -0.760346 -0.430180
vn -0.965296 -0.099351 -0.241521
vn -0.485912 0.234559 -0.841945
vn 0.967779 -0.124777 -0.218712
vn 0.486488 -0.782463 -0.388692
vn 0.515858 0.185741 -0.836296
vn 0.515859 0.185741 -0.836296
s 1
g bevelledTriangle
f 2/1/1 1/19/2 25/38/3 30/16/4
s 2
f 1/20/5 6/17/6 26/5/7 25/37/8
s 3
f 4/2/9 3/21/10 11/28/11 10/13/12
s 1
f 3/22/13 2/1/1 12/3/14 11/27/15
s 2
f 6/17/6 5/23/16 15/31/17 14/18/18
s 3
f 5/23/19 4/2/9 16/6/20 15/31/21
s 4
f 8/4/22 7/24/23 31/43/24 36/9/25
s 1
f 7/25/26 12/3/14 32/10/27 31/42/28
s 3
f 10/13/12 9/26/29 23/36/30 22/7/31
s 4
f 9/26/32 8/4/22 24/8/33 23/36/34
s 2
f 14/18/18 13/29/35 27/40/36 26/5/7
s 5
f 13/30/37 18/15/38 28/11/39 27/39/40
f 18/15/38 17/32/41 21/35/42 20/14/43
s 3
f 17/32/44 16/6/20 22/7/45 21/35/46
s 5
f 20/14/43 19/33/47 35/46/48 34/12/49
s 4
f 19/34/50 24/8/33 36/9/25 35/45/51
s 1
f 30/16/4 29/41/52 33/44/53 32/10/27
s 5
f 29/41/54 28/11/39 34/12/55 33/44/56
s 3
f 4/2/9 10/13/12 22/7/31 16/6/20
s 5
f 20/14/43 34/12/49 28/11/39 18/15/38
s 1
f 30/16/4 32/10/27 12/3/14 2/1/1
s 4
f 8/4/22 36/9/25 24/8/33
s 2
f 26/5/7 6/17/6 14/18/18
f 5/23/16 6/17/6 1/20/5 37/48/57
s 1
f 1/19/2 2/1/1 3/22/13 37/47/58
s 3
f 3/21/10 4/2/9 5/23/19 37/48/59
s 1
f 11/27/15 12/3/14 7/25/26 38/50/60
s 4
f 7/24/23 8/4/22 9/26/32 38/49/61
s 3
f 9/26/29 10/13/12 11/28/11 38/49/62
s 5
f 17/32/41 18/15/38 13/30/37 39/51/63
s 2
f 13/29/35 14/18/18 15/31/17 39/51/64
s 3
f 15/31/21 16/6/20 17/32/44 39/51/65
s 4
f 23/36/34 24/8/33 19/34/50 40/52/66
s 5
f 19/33/47 20/14/43 21/35/42 40/52/67
s 3
f 21/35/68 22/7/31 23/36/30 40/52/69
s 1
f 29/41/52 30/16/4 25/38/3 41/54/70
s 2
f 25/37/8 26/5/7 27/40/36 41/53/71
s 5
f 27/39/40 28/11/39 29/41/54 41/54/72
s 4
f 35/45/51 36/9/25 31/43/24 42/56/73
s 1
f 31/42/28 32/10/27 33/44/53 42/55/74
s 5
f 33/44/75 34/12/49 35/46/48 42/55/76
