# This file uses centimeters as units for non-parametric coordinates.

mtllib Bump.mtl
g default
v -0.500000 -0.500000 0.500000
v 0.000000 -0.500000 0.500000
v 0.500000 -0.500000 0.500000
v -0.500000 0.000000 0.500000
v 0.000000 0.000000 0.500000
v 0.500000 0.000000 0.500000
v 0.000000 0.500000 0.500000
v -0.500000 0.000000 0.000000
v 0.000000 0.500000 0.000000
v 0.500000 0.000000 0.000000
v -0.500000 0.000000 -0.500000
v 0.000000 0.500000 -0.500000
v 0.500000 0.000000 -0.500000
v 0.000000 0.000000 -0.500000
v -0.500000 -0.500000 -0.500000
v 0.000000 -0.500000 -0.500000
v 0.500000 -0.500000 -0.500000
v -0.500000 -0.500000 0.000000
v 0.000000 -0.500000 0.000000
v 0.500000 -0.500000 0.000000
vt 0.375000 0.000000
vt 0.500000 0.000000
vt 0.625000 0.000000
vt 0.364586 0.114592
vt 0.500000 0.125000
vt 0.635414 0.114592
vt 0.500000 0.250000
vt 0.369800 0.369791
vt 0.500000 0.375000
vt 0.630200 0.369791
vt 0.375012 0.624987
vt 0.500000 0.500000
vt 0.624987 0.624987
vt 0.500000 0.625000
vt 0.375000 0.750000
vt 0.500000 0.750000
vt 0.625000 0.750000
vt 0.375000 0.875000
vt 0.500000 0.875000
vt 0.625000 0.875000
vt 0.375000 1.000000
vt 0.500000 1.000000
vt 0.625000 1.000000
vt 0.875000 0.000000
vt 0.750000 0.000000
vt 0.874981 0.125012
vt 0.752079 0.122927
vt 0.125000 0.000000
vt 0.250000 0.000000
vt 0.125019 0.125012
vt 0.247921 0.122927
vn 0.000000 0.000000 1.000000
vn 0.000000 0.000000 1.000000
vn 0.000000 0.000000 1.000000
vn 0.000000 0.000000 1.000000
vn 0.000000 0.000000 1.000000
vn 0.000000 0.000000 1.000000
vn 0.000000 0.000000 1.000000
vn -0.707107 0.707107 0.000000
vn 0.000000 1.000000 0.000000
vn 0.000000 1.000000 0.000000
vn -0.707107 0.707107 0.000000
vn 0.707107 0.707107 0.000000
vn 0.707107 0.707107 0.000000
vn 0.000000 1.000000 0.000000
vn -0.707107 0.707107 0.000000
vn 0.707107 0.707107 0.000000
vn 0.000000 0.000000 -1.000000
vn 0.000000 0.000000 -1.000000
vn 0.000000 0.000000 -1.000000
vn 0.000000 0.000000 -1.000000
vn 0.000000 0.000000 -1.000000
vn 0.000000 0.000000 -1.000000
vn 0.000000 0.000000 -1.000000
vn 0.000000 -1.000000 0.000000
vn 0.000000 -1.000000 0.000000
vn 0.000000 -1.000000 0.000000
vn 0.000000 -1.000000 0.000000
vn 0.000000 -1.000000 0.000000
vn 0.000000 -1.000000 0.000000
vn 0.000000 -1.000000 0.000000
vn 0.000000 -1.000000 0.000000
vn 0.000000 -1.000000 0.000000
vn 1.000000 0.000000 0.000000
vn 1.000000 0.000000 0.000000
vn 1.000000 0.000000 0.000000
vn 1.000000 0.000000 0.000000
vn 1.000000 0.000000 0.000000
vn 1.000000 0.000000 0.000000
vn -1.000000 0.000000 0.000000
vn -1.000000 0.000000 0.000000
vn -1.000000 0.000000 0.000000
vn -1.000000 0.000000 0.000000
vn -1.000000 0.000000 0.000000
vn -1.000000 0.000000 0.000000
s 1
g pCube2
usemtl initialShadingGroup
f 1/1/1 2/2/2 5/5/3 4/4/4
f 2/2/2 3/3/5 6/6/6 5/5/3
f 4/4/4 5/5/3 7/7/7
f 5/5/3 6/6/6 7/7/7
s 2
f 4/4/8 7/7/9 9/9/10 8/8/11
f 7/7/9 6/6/12 10/10/13 9/9/10
f 8/8/11 9/9/10 12/12/14 11/11/15
f 9/9/10 10/10/13 13/13/16 12/12/14
s 3
f 11/11/17 12/12/18 14/14/19
f 12/12/18 13/13/20 14/14/19
f 11/11/17 14/14/19 16/16/21 15/15/22
f 14/14/19 13/13/20 17/17/23 16/16/21
s 4
f 15/15/24 16/16/25 19/19/26 18/18/27
f 16/16/25 17/17/28 20/20/29 19/19/26
f 18/18/27 19/19/26 2/22/30 1/21/31
f 19/19/26 20/20/29 3/23/32 2/22/30
s 5
f 20/25/33 17/24/34 13/26/35 10/27/36
f 3/3/37 20/25/33 10/27/36 6/6/38
s 6
f 15/28/39 18/29/40 8/31/41 11/30/42
f 18/29/40 1/1/43 4/4/44 8/31/41
