# This file uses centimeters as units for non-parametric coordinates.

mtllib Bump.mtl
g default
v -0.500000 -0.500000 0.500000
v 0.000000 -0.500000 0.500000
v 0.500000 -0.500000 0.500000
v 0.000000 0.500000 0.500000
v -0.500000 -0.500000 -0.500000
v 0.000000 0.500000 -0.500000
v 0.500000 -0.500000 -0.500000
v 0.000000 -0.500000 -0.500000
vt 0.354173 -0.020825
vt 0.500000 0.000000
vt 0.645827 -0.020825
vt 0.500000 0.250000
vt 0.372472 0.686480
vt 0.500000 0.500000
vt 0.627528 0.686480
vt 0.500000 0.750000
vt 0.375025 0.999987
vt 0.500000 1.000000
vt 0.624975 0.999987
vn 0.000000 0.000000 1.000000
vn 0.000000 0.000000 1.000000
vn 0.000000 0.000000 1.000000
vn 0.000000 0.000000 1.000000
vn -0.894427 0.447214 0.000000
vn 0.000000 1.000000 0.000000
vn 0.000000 1.000000 0.000000
vn -0.894427 0.447214 0.000000
vn 0.894427 0.447214 0.000000
vn 0.894427 0.447214 0.000000
vn 0.000000 0.000000 -1.000000
vn 0.000000 0.000000 -1.000000
vn 0.000000 0.000000 -1.000000
vn 0.000000 0.000000 -1.000000
vn 0.000000 -1.000000 0.000000
vn 0.000000 -1.000000 0.000000
vn 0.000000 -1.000000 0.000000
vn 0.000000 -1.000000 0.000000
vn 0.000000 -1.000000 0.000000
vn 0.000000 -1.000000 0.000000
s 1
g pCube1
usemtl initialShadingGroup
f 1/1/1 2/2/2 4/4/3
f 2/2/2 3/3/4 4/4/3
s 2
f 1/1/5 4/4/6 6/6/7 5/5/8
f 4/4/6 3/3/9 7/7/10 6/6/7
s 3
f 5/5/11 6/6/12 8/8/13
f 6/6/12 7/7/14 8/8/13
s 4
f 5/5/15 8/8/16 2/10/17 1/9/18
f 8/8/16 7/7/19 3/11/20 2/10/17
