# This file uses centimeters as units for non-parametric coordinates.

g default
v -0.500000 -0.500000 0.500000
v 0.500000 -0.500000 0.500000
v 0.500000 0.500000 0.500000
v -0.500000 -0.500000 -0.500000
v 0.500000 -0.500000 -0.500000
vt 0.375000 0.000000
vt 0.625000 0.000000
vt 0.625000 0.250000
vt 0.375000 0.750000
vt 0.625000 0.750000
vt 0.375000 1.000000
vt 0.625000 1.000000
vt 0.125000 0.000000
vn 0.000000 -1.000000 0.000000
vn 0.000000 -1.000000 0.000000
vn 0.000000 -1.000000 0.000000
vn 0.000000 -1.000000 0.000000
vn 0.135480 0.981474 0.135480
vn -0.666667 0.666667 0.333333
vn 0.000000 0.000000 1.000000
vn 0.333333 0.666667 -0.666667
vn 1.000000 0.000000 0.000000
vn -0.408248 0.816497 -0.408248
s off
g corner
f 4/4/1 5/5/2 2/7/3 1/6/4
s 1
f 3/3/5 1/1/6 2/2/7
f 5/5/8 3/3/5 2/2/9
f 4/8/10 1/1/6 3/3/5
f 4/8/10 3/3/5 5/5/8
